<svg xmlns="http://www.w3.org/2000/svg" width="200" height="62" viewBox="0 0 200 62">
    <path fill="#0F00FF" fill-rule="evenodd" d="M0 28.496v-4.187h18.568v4.187l-4.314.83L19.75 46.33l1.853 6.616 1.534-6.488 5.274-17.162-4.091-.799v-4.187h15.02v4.187l-3.323.799L24.129 61.19H15.66L2.685 29.327 0 28.496zm42.458 3.803c1.48-2.876 3.563-5.081 6.248-6.615 2.684-1.534 5.795-2.301 9.332-2.301 4.495 0 7.942 1.14 10.338 3.42 2.397 2.279 3.65 5.55 3.756 9.81 0 2.962-.16 5.21-.48 6.744H51.007c.255 3.92 1.22 6.829 2.892 8.725 1.673 1.896 3.894 2.844 6.663 2.844 1.598 0 3.266-.277 5.002-.83 1.737-.555 3.148-1.183 4.235-1.886l1.853 3.963c-.745.788-1.848 1.587-3.307 2.396-1.46.81-3.132 1.487-5.018 2.03a20.4 20.4 0 0 1-5.673.815c-3.963 0-7.244-.788-9.843-2.365-2.6-1.577-4.512-3.777-5.737-6.6-1.225-2.823-1.838-6.13-1.838-9.923 0-3.942.74-7.35 2.222-10.227zm19.479 6.68l.032-2.685c0-2.663-.384-4.73-1.15-6.2-.768-1.47-2.068-2.205-3.9-2.205-1.214 0-2.248.309-3.1.927-.852.617-1.534 1.741-2.045 3.371-.512 1.63-.8 3.894-.863 6.792h11.026zm19.24 16.81V31.212l-3.868-1.278v-5.05l10.706-1.47h.16l1.886 1.407v1.853l-.16 5.05h.16c.298-.959.974-2.099 2.03-3.42 1.054-1.32 2.401-2.477 4.042-3.467 1.64-.991 3.43-1.486 5.37-1.486.532 0 1.016.047 1.453.143.437.096.783.219 1.039.368V34.76a8.252 8.252 0 0 0-2.285-1.119c-.778-.234-1.72-.351-2.829-.351-1.576 0-3.025.17-4.346.511-1.321.341-2.322.767-3.004 1.279v20.677l7.542.671v4.25H76.957v-4.282l4.22-.607zM105.4 12.357V8.553l12.656-1.566h.16l2.109 1.31v19.08c1.108-1.15 2.477-2.109 4.107-2.876 1.63-.767 3.403-1.15 5.32-1.15 2.685 0 5.088.623 7.208 1.87 2.12 1.246 3.803 3.211 5.05 5.896 1.246 2.684 1.869 6.082 1.869 10.195 0 3.792-.788 7.212-2.365 10.258-1.577 3.047-3.846 5.45-6.807 7.207-2.962 1.758-6.414 2.637-10.355 2.637-2.514 0-4.789-.15-6.823-.448-2.035-.298-3.686-.65-4.954-1.054-1.268-.405-2.093-.746-2.477-1.023V13.156l-4.698-.8zm14.925 43.432c.213.469.72.847 1.518 1.135.799.287 1.752.431 2.86.431 1.62 0 3.036-.565 4.25-1.694 1.215-1.129 2.163-2.828 2.845-5.097.682-2.27 1.023-5.066 1.023-8.39 0-4.26-.629-7.42-1.886-9.475-1.257-2.056-2.993-3.084-5.209-3.084-1.13 0-2.173.245-3.132.735-.959.49-1.715 1.065-2.269 1.725V55.79zm48.802-18.856c0-1.598-.176-2.865-.528-3.803-.351-.937-.996-1.64-1.933-2.11-.938-.468-2.28-.702-4.027-.702-2.173 0-4.139.24-5.897.719a39.239 39.239 0 0 0-5.289 1.87h-.032l-2.077-4.315c.703-.597 1.87-1.294 3.5-2.093 1.63-.8 3.536-1.503 5.72-2.11a24.878 24.878 0 0 1 6.695-.91c3.41 0 6.089.441 8.038 1.326 1.95.884 3.34 2.285 4.17 4.202.832 1.918 1.247 4.507 1.247 7.766v19.591h3.484v4.06c-1.087.233-2.45.468-4.091.702-1.64.235-3.079.352-4.314.352-1.13 0-1.998-.101-2.605-.304-.607-.202-1.039-.564-1.294-1.086-.256-.522-.384-1.284-.384-2.286v-.99c-1.044 1.214-2.46 2.285-4.25 3.212-1.79.926-3.846 1.39-6.169 1.39-2.045 0-3.915-.421-5.608-1.263-1.694-.841-3.042-2.082-4.043-3.723-1.002-1.64-1.502-3.622-1.502-5.944 0-4.006 1.875-7.026 5.624-9.06 3.75-2.035 8.938-3.085 15.565-3.149v-1.342zm0 5.657c-3.559.021-6.131.66-7.719 1.917-1.587 1.258-2.38 2.855-2.38 4.794 0 1.96.452 3.468 1.358 4.523.905 1.054 2.125 1.582 3.659 1.582.746 0 1.614-.198 2.605-.592.99-.394 1.816-.89 2.477-1.486V42.59zm19.495 10.21a6.081 6.081 0 0 1 2.38-2.108c.991-.501 2.073-.751 3.244-.751 1.194 0 2.222.245 3.084.735.863.49 1.524 1.145 1.982 1.965.458.82.687 1.7.687 2.637 0 1.832-.629 3.28-1.886 4.346-1.257 1.065-2.876 1.598-4.857 1.598a5.593 5.593 0 0 1-2.685-.687 5.526 5.526 0 0 1-2.061-1.902c-.522-.81-.783-1.736-.783-2.78 0-1.13.298-2.147.895-3.052z"/>
</svg>
